<svg xmlns="http://www.w3.org/2000/svg" width="64" height="64" fill="none"><path fill="#000" d="M48.379 42.373c-5.364 3.53-8.003 4.562-11.664 4.562-2.555 0-4.939-.688-7.238-2.066-4.512-2.754-7.577-7.747-7.577-12.912 0-2.755.681-5.337 2.043-7.661 2.64-4.649 7.663-7.404 12.771-7.404 3.236 0 6.13.947 8.6 2.755.426.258.936.603 1.532 1.205l1.278.947 5.704-6.8-.937-.947c-.596-.603-1.362-1.12-2.298-1.722-4.002-3.099-8.685-4.649-13.879-4.649-6.385 0-12.26 2.497-16.943 7.06-4.512 4.82-7.067 10.76-7.067 17.216 0 6.456 2.555 12.568 7.067 17.13 4.513 4.563 10.558 7.145 16.944 7.145 4.597 0 8.854-1.29 12.856-3.873l-1.703-2.583c-3.49 2.324-7.152 3.443-11.154 3.443-5.534 0-10.813-2.238-14.814-6.284-4.002-4.046-6.13-9.383-6.13-14.978 0-5.595 2.128-10.847 6.13-14.892 4.002-4.132 9.28-6.285 14.815-6.285 4.171 0 8.173 1.292 12.175 3.96l.681.603-1.873 2.152c-.256-.086-.426-.172-.596-.344-3.15-2.152-6.641-3.271-10.387-3.271-3.321 0-6.301.774-8.94 2.324-5.364 3.185-8.94 9.469-8.94 15.753 0 3.013.851 6.026 2.469 8.867 3.32 5.767 9.365 9.297 15.41 9.297 4.002 0 7.238-1.206 12.09-4.305l4.769 7.145c-6.216 4.132-11.069 5.854-16.858 5.854-4.768 0-9.196-1.205-13.283-3.616-8.258-4.82-13.367-13.6-13.367-23.242 0-4.82 1.192-9.297 3.576-13.515 4.768-8.264 13.538-13.43 23.073-13.43 6.727 0 13.112 2.497 17.965 7.06l.511.43.681.689L58 10.953l-1.192-1.206C51.358 4.841 44.207 2 36.715 2 31.35 2 26.412 3.291 21.9 5.96 12.875 11.21 7 21.283 7 31.957c0 5.251 1.362 10.244 4.087 14.892C16.45 56.146 26.072 62 36.715 62c6.726 0 12.345-2.152 19.923-7.403l1.192-.775-8.089-12.31-1.362.861Z"/></svg>